HIERARCHY
ROOT Hips
{
  OFFSET 5.84602e-005 68.8428 3.50346
  CHANNELS 6 Xposition Yposition Zposition Zrotation Xrotation Yrotation
  JOINT Spine
  {
    OFFSET 0 8.597 -4.6522
    CHANNELS 3 Zrotation Xrotation Yrotation
    JOINT Spine1
    {
      OFFSET 0 7.8454 0.4098
      CHANNELS 3 Zrotation Xrotation Yrotation
      JOINT Spine2
      {
        OFFSET 0 9.7078 -2.1609
        CHANNELS 3 Zrotation Xrotation Yrotation
        JOINT Neck
        {
          OFFSET 0 21.8761 -0.4549
          CHANNELS 3 Zrotation Xrotation Yrotation
          JOINT Head
          {
            OFFSET 0 12.3537 3.3602
            CHANNELS 3 Zrotation Xrotation Yrotation
            End Site
            {
              OFFSET 0.0001 18.9506 0.5657
            }
          }
        }
        JOINT LeftShoulder
        {
          OFFSET 2.2086 21.1115 7.2329
          CHANNELS 3 Zrotation Xrotation Yrotation
          JOINT LeftArm
          {
            OFFSET 13.1193 3.0282 -4.8998
            CHANNELS 3 Zrotation Xrotation Yrotation
            JOINT LeftForeArm
            {
              OFFSET 27.4081 -0.0973053 -0.2375
              CHANNELS 3 Zrotation Xrotation Yrotation
              JOINT LeftHand
              {
                OFFSET 22.8641 0.0662994 -0.1369
                CHANNELS 3 Zrotation Xrotation Yrotation
                JOINT LeftHandIndex1
                {
                  OFFSET 8.8614 0.775009 2.4612
                  CHANNELS 3 Zrotation Xrotation Yrotation
                  JOINT LeftHandIndex2
                  {
                    OFFSET 3.3146 -0.808304 0.5841
                    CHANNELS 3 Zrotation Xrotation Yrotation
                    JOINT LeftHandIndex3
                    {
                      OFFSET 2.2628 -0.552002 0.3989
                      CHANNELS 3 Zrotation Xrotation Yrotation
                      End Site
                      {
                        OFFSET 1.6102 -0.4807 0.2612
                      }
                    }
                  }
                }
                JOINT LeftHandMiddle1
                {
                  OFFSET 8.9937 0.895004 0.2143
                  CHANNELS 3 Zrotation Xrotation Yrotation
                  JOINT LeftHandMiddle2
                  {
                    OFFSET 4.0984 0.0113983 -0.0242
                    CHANNELS 3 Zrotation Xrotation Yrotation
                    JOINT LeftHandMiddle3
                    {
                      OFFSET 2.2716 0.00689697 -0.0138001
                      CHANNELS 3 Zrotation Xrotation Yrotation
                      End Site
                      {
                        OFFSET 2.0404 -0.1441 0.0027
                      }
                    }
                  }
                }
                JOINT LeftHandRing1
                {
                  OFFSET 8.5234 0.597198 -2.0164
                  CHANNELS 3 Zrotation Xrotation Yrotation
                  JOINT LeftHandRing2
                  {
                    OFFSET 3.7188 -0.188293 -0.2328
                    CHANNELS 3 Zrotation Xrotation Yrotation
                    JOINT LeftHandRing3
                    {
                      OFFSET 2.1191 -0.106598 -0.1332
                      CHANNELS 3 Zrotation Xrotation Yrotation
                      End Site
                      {
                        OFFSET 1.8737 -0.2304 -0.0886
                      }
                    }
                  }
                }
                JOINT LeftHandPinky1
                {
                  OFFSET 7.9094 -0.601089 -3.4825
                  CHANNELS 3 Zrotation Xrotation Yrotation
                  JOINT LeftHandPinky2
                  {
                    OFFSET 2.2874 -0.477005 -0.6314
                    CHANNELS 3 Zrotation Xrotation Yrotation
                    JOINT LeftHandPinky3
                    {
                      OFFSET 1.6774 -0.349396 -0.4633
                      CHANNELS 3 Zrotation Xrotation Yrotation
                      End Site
                      {
                        OFFSET 1.4888 -0.4091 -0.3416
                      }
                    }
                  }
                }
                JOINT LeftHandThumb1
                {
                  OFFSET 1.833 -1.3875 1.3896
                  CHANNELS 3 Zrotation Xrotation Yrotation
                  JOINT LeftHandThumb2
                  {
                    OFFSET 3.4129 -1.121 2.5732
                    CHANNELS 3 Zrotation Xrotation Yrotation
                    JOINT LeftHandThumb3
                    {
                      OFFSET 2.2474 -0.804199 1.6192
                      CHANNELS 3 Zrotation Xrotation Yrotation
                      End Site
                      {
                        OFFSET 1.6527 -0.5689 1.1317
                      }
                    }
                  }
                }
              }
            }
          }
        }
        JOINT RightShoulder
        {
          OFFSET -2.2086 21.1115 7.2329
          CHANNELS 3 Zrotation Xrotation Yrotation
          JOINT RightArm
          {
            OFFSET -13.1216 3.0287 -4.9007
            CHANNELS 3 Zrotation Xrotation Yrotation
            JOINT RightForeArm
            {
              OFFSET -27.4081 -0.0973053 -0.2375
              CHANNELS 3 Zrotation Xrotation Yrotation
              JOINT RightHand
              {
                OFFSET -22.8641 0.0664063 -0.1369
                CHANNELS 3 Zrotation Xrotation Yrotation
                JOINT RightHandIndex1
                {
                  OFFSET -8.8614 0.774994 2.4612
                  CHANNELS 3 Zrotation Xrotation Yrotation
                  JOINT RightHandIndex2
                  {
                    OFFSET -3.3146 -0.808304 0.5841
                    CHANNELS 3 Zrotation Xrotation Yrotation
                    JOINT RightHandIndex3
                    {
                      OFFSET -2.2628 -0.552002 0.3989
                      CHANNELS 3 Zrotation Xrotation Yrotation
                      End Site
                      {
                        OFFSET -1.6102 -0.4807 0.2612
                      }
                    }
                  }
                }
                JOINT RightHandMiddle1
                {
                  OFFSET -8.9937 0.894989 0.2143
                  CHANNELS 3 Zrotation Xrotation Yrotation
                  JOINT RightHandMiddle2
                  {
                    OFFSET -4.0984 0.0113983 -0.0242
                    CHANNELS 3 Zrotation Xrotation Yrotation
                    JOINT RightHandMiddle3
                    {
                      OFFSET -2.2716 0.00691223 -0.0138001
                      CHANNELS 3 Zrotation Xrotation Yrotation
                      End Site
                      {
                        OFFSET -2.0404 -0.1441 0.0027
                      }
                    }
                  }
                }
                JOINT RightHandRing1
                {
                  OFFSET -8.5234 0.597198 -2.0164
                  CHANNELS 3 Zrotation Xrotation Yrotation
                  JOINT RightHandRing2
                  {
                    OFFSET -3.7188 -0.188309 -0.2328
                    CHANNELS 3 Zrotation Xrotation Yrotation
                    JOINT RightHandRing3
                    {
                      OFFSET -2.1191 -0.106598 -0.1332
                      CHANNELS 3 Zrotation Xrotation Yrotation
                      End Site
                      {
                        OFFSET -1.8737 -0.2304 -0.0886
                      }
                    }
                  }
                }
                JOINT RightHandPinky1
                {
                  OFFSET -7.9094 -0.601105 -3.4825
                  CHANNELS 3 Zrotation Xrotation Yrotation
                  JOINT RightHandPinky2
                  {
                    OFFSET -2.2874 -0.477005 -0.6314
                    CHANNELS 3 Zrotation Xrotation Yrotation
                    JOINT RightHandPinky3
                    {
                      OFFSET -1.6774 -0.349396 -0.4633
                      CHANNELS 3 Zrotation Xrotation Yrotation
                      End Site
                      {
                        OFFSET -1.4888 -0.4091 -0.3416
                      }
                    }
                  }
                }
                JOINT RightHandThumb1
                {
                  OFFSET -1.833 -1.38751 1.3896
                  CHANNELS 3 Zrotation Xrotation Yrotation
                  JOINT RightHandThumb2
                  {
                    OFFSET -3.41299 -1.12099 2.5732
                    CHANNELS 3 Zrotation Xrotation Yrotation
                    JOINT RightHandThumb3
                    {
                      OFFSET -2.24741 -0.804108 1.6192
                      CHANNELS 3 Zrotation Xrotation Yrotation
                      End Site
                      {
                        OFFSET -1.6527 -0.5689 1.1317
                      }
                    }
                  }
                }
              }
            }
          }
        }
      }
    }
  }
  JOINT RightUpLeg
  {
    OFFSET -9.1966 3.8861 -0.7581
    CHANNELS 3 Zrotation Xrotation Yrotation
    JOINT RightLeg
    {
      OFFSET -0.7359 -41.0265 0
      CHANNELS 3 Zrotation Xrotation Yrotation
      JOINT RightFoot
      {
        OFFSET 0 -40.2855 0
        CHANNELS 3 Zrotation Xrotation Yrotation
        JOINT RightToeBase
        {
          OFFSET 0 -5.6122 11.7359
          CHANNELS 3 Zrotation Xrotation Yrotation
          End Site
          {
            OFFSET 0 0 7.8731
          }
        }
      }
    }
  }
  JOINT LeftUpLeg
  {
    OFFSET 9.1965 3.8864 -0.7581
    CHANNELS 3 Zrotation Xrotation Yrotation
    JOINT LeftLeg
    {
      OFFSET 0.7359 -41.0268 0
      CHANNELS 3 Zrotation Xrotation Yrotation
      JOINT LeftFoot
      {
        OFFSET 0 -40.2855 0
        CHANNELS 3 Zrotation Xrotation Yrotation
        JOINT LeftToeBase
        {
          OFFSET 0 -5.6122 11.7359
          CHANNELS 3 Zrotation Xrotation Yrotation
          End Site
          {
            OFFSET 0 0 7.8731
          }
        }
      }
    }
  }
}
MOTION
Frames:	4
Frame Time:	0.0333333
5.84602e-005 68.8428 3.50346 0 0 -0 0 0 -0 0 0 -0 0 0 -0 0 0 -0 0 0 -0 0 0 -0 0 0 -0 0 0 -0 0 0 -0 0 0 -0 0 0 -0 0 0 -0 0 0 -0 -0.0146107 -8.87603e-005 -2.63497e-007 2.99804e-018 -2.42657e-020 -1.42182e-022 0 0 -0 -0.0187562 -0.001176 5.858e-005 5.06224e-018 3.88251e-019 1.21329e-020 0 0 -0 -0.012269 -0.00324817 0.000675346 -1.74678e-018 3.88251e-019 -0 0 0 -0 0 0 -0 0 0 -0 0 0 -0 0 0 -0 0 0 -0 0 0 -0 0 0 -0 0 0 -0 0 0 -0 0 0 -0 0.0149955 -9.10982e-005 2.64101e-007 -9.69331e-018 1.21329e-020 -4.7394e-023 0 0 -0 0.0189956 -0.00119102 -5.96516e-005 -5.41541e-019 0 2.42657e-020 0 0 -0 0.0122698 -0.00324857 -0.000673756 -2.00796e-019 0 -1.94126e-019 0 0 -0 0 0 -0 0 0 -0 3.39842 1.33031 -0.0637918 -5.65207e-008 0.834868 -0.000436188 -3.39935 -2.16518 -0.0642563 -8.89002e-024 -1.18485e-023 -1.48106e-024 -3.39844 1.35642 0.0640283 -3.18788e-007 0.782166 -0.000588827 3.39931 -2.13858 0.0634662 1.1399e-023 0 -0 
-2.31475 23.7653 49.8777 -43.5783 -33.0364 119.809 0.0203129 -0.371913 0.0311078 0.0407744 -0.743814 0.0623538 0.040794 -0.743824 0.062356 3.51935e-005 -11.1749 -5.29656e-005 -0.0426462 -16.7255 -0.0176078 20.81 11.7004 -11.5545 -29.7276 -76.2465 -42.9471 -22.0657 -10.7474 -65.0822 -3.54802 8.47866 -20.1236 1.66276e-006 -1.59528e-007 -2.41189e-007 1.66276e-006 -1.59528e-007 -2.41189e-007 1.66276e-006 -1.59528e-007 -2.41189e-007 1.66276e-006 -1.59528e-007 -2.41189e-007 -0.0146843 -8.88508e-005 -1.65899e-006 1.66279e-006 -1.59497e-007 -2.41211e-007 1.66276e-006 -1.59528e-007 -2.41189e-007 -0.0188445 -0.00117952 5.99959e-005 1.6628e-006 -1.59487e-007 -2.41232e-007 1.66276e-006 -1.59528e-007 -2.41189e-007 -0.0122855 -0.00325211 0.000675872 1.66278e-006 -1.59505e-007 -2.41255e-007 1.66276e-006 -1.59528e-007 -2.41189e-007 1.66276e-006 -1.59528e-007 -2.41189e-007 1.66276e-006 -1.59528e-007 -2.41189e-007 -20.8263 11.7046 11.5399 29.7074 -76.2464 42.9378 22.0382 -10.8707 65.097 3.54972 8.46653 20.1047 -1.09232e-006 2.4816e-007 -4.07592e-006 8.23707e-008 -6.40111e-008 -2.24698e-008 -5.10491e-007 -2.35361e-008 -1.15086e-006 -1.09232e-006 2.4816e-007 -4.07592e-006 0.015004 -9.14937e-005 2.7347e-006 -1.09306e-006 2.47631e-007 -4.07595e-006 -1.09232e-006 2.4816e-007 -4.07592e-006 0.0190891 -0.0011974 -6.65552e-005 -1.0933e-006 2.47539e-007 -4.07595e-006 -1.09232e-006 2.4816e-007 -4.07592e-006 0.0122005 -0.00323159 -0.000672245 -5.09488e-007 -2.39359e-008 -1.1509e-006 -1.09232e-006 2.4816e-007 -4.07592e-006 8.23707e-008 -6.40111e-008 -2.24698e-008 -5.10491e-007 -2.35361e-008 -1.15086e-006 -65.766 -62.7828 -58.6775 172.366 78.647 -176.181 -6.76022 8.38591 -1.93225 9.67745e-007 7.80134e-007 1.15944e-006 66.0703 -61.5045 59.5884 -172.246 78.631 176.063 6.74487 8.41808 1.94056 -4.58846e-007 3.64716e-007 6.16413e-007 
1.30949 5.48187 74.5991 43.3492 -70.9565 -135.039 0.0412593 -0.615521 0.0459279 0.0830612 -1.23101 0.0922912 0.0830601 -1.23102 0.092292 -4.41632e-006 -15.9194 -7.28446e-007 -0.0649515 -23.384 -0.0256296 31.8926 16.8964 -17.6003 -136.309 -61.1382 -151.135 -35.4404 0.706939 -90.9903 -3.30348 11.6707 -29.6237 2.17498e-007 -1.5316e-006 -4.2313e-007 2.91027e-007 1.51526e-006 -6.88538e-007 -7.99553e-007 -1.49893e-006 1.80021e-006 2.17498e-007 -1.5316e-006 -4.2313e-007 -0.0146485 -8.69165e-005 2.7234e-006 -8.01491e-007 -1.49917e-006 1.80002e-006 2.17498e-007 -1.5316e-006 -4.2313e-007 -0.0187523 -0.00117696 5.54134e-005 -2.90981e-007 -1.51537e-006 6.88293e-007 2.17498e-007 -1.5316e-006 -4.2313e-007 -0.0122856 -0.00325506 0.000675163 -2.9099e-007 -1.51533e-006 6.88383e-007 2.17498e-007 -1.5316e-006 -4.2313e-007 2.91027e-007 1.51526e-006 -6.88538e-007 -7.99553e-007 -1.49893e-006 1.80021e-006 -31.9097 16.9044 17.5767 136.293 -61.1403 151.136 35.4386 0.685615 90.9476 3.31099 11.6559 29.5973 4.41391e-032 3.18055e-015 -7.95139e-016 -7.95139e-016 -3.18055e-015 -1.03368e-014 -1.59028e-015 -3.18055e-015 -6.36111e-015 4.41391e-032 3.18055e-015 -7.95139e-016 0.0149921 -9.03992e-005 1.83593e-006 1.98785e-015 6.36111e-015 -4.77083e-015 4.41391e-032 3.18055e-015 -7.95139e-016 0.0190081 -0.00119171 -6.00027e-005 -5.96354e-015 -6.36111e-015 -0 4.41391e-032 3.18055e-015 -7.95139e-016 0.0122601 -0.00324556 -0.000675688 8.74653e-015 3.18055e-015 -2.38542e-015 4.41391e-032 3.18055e-015 -7.95139e-016 -7.95139e-016 -3.18055e-015 -1.03368e-014 -1.59028e-015 -3.18055e-015 -6.36111e-015 -137.502 -55.2758 -120.536 177.077 35.4886 175.275 -6.97816 12.6741 -5.03196 6.36111e-015 -3.18055e-015 -1.59028e-015 134.803 -53.7981 118.239 -177.043 35.4904 -175.346 6.95406 12.7735 5.02553 -4.5089e-006 -3.09858e-006 -9.36457e-006 
0.00356587 9.4936 69.3681 -0.00886773 -71.0095 179.991 0.0355482 -0.730999 0.0429562 0.0716534 -1.462 0.0863765 0.0716535 -1.46198 0.0863765 -1.83695e-006 -14.232 -3.35089e-006 -0.058864 -19.9747 -0.0212563 29.6011 16.4909 -17.249 -129.455 -68.4133 -144.099 -32.8835 -2.97296 -85.551 -3.6387 11.5766 -27.7857 1.59028e-015 6.36111e-015 -0 3.97569e-015 3.18055e-015 -3.18055e-015 1.59028e-015 9.54166e-015 -9.54166e-015 1.59028e-015 6.36111e-015 -0 -0.0146213 -8.76424e-005 -2.87106e-006 4.77083e-015 -3.18055e-015 3.18055e-015 1.59028e-015 6.36111e-015 -0 -0.0187316 -0.0011749 5.62764e-005 -2.38542e-015 0 -0 1.59028e-015 6.36111e-015 -0 -0.0122639 -0.00324508 0.0006788 6.36111e-015 -1.59028e-015 -6.36111e-015 1.59028e-015 6.36111e-015 -0 3.97569e-015 3.18055e-015 -3.18055e-015 1.59028e-015 9.54166e-015 -9.54166e-015 -29.6065 16.5001 17.2218 129.436 -68.4135 144.093 32.8785 -3.02124 85.5308 3.64598 11.5619 27.7657 -7.15625e-015 -1.59028e-015 -0 7.95139e-015 0 -0 5.56597e-015 -1.59028e-015 -0 -7.15625e-015 -1.59028e-015 -0 0.0149929 -9.20345e-005 -7.62486e-007 1.59028e-015 -3.18055e-015 -9.54166e-015 -7.15625e-015 -1.59028e-015 -0 0.0189981 -0.00119008 -6.01113e-005 1.03368e-014 4.77083e-015 -3.18055e-015 -7.15625e-015 -1.59028e-015 -0 0.0122508 -0.00324368 -0.000675041 7.95139e-015 -1.59028e-015 -0 -7.15625e-015 -1.59028e-015 -0 7.95139e-015 0 -0 5.56597e-015 -1.59028e-015 -0 -124.462 -59.2225 -109.183 176.764 44.988 177.021 -7.21322 11.9312 -3.85118 3.57445e-006 1.23519e-006 -3.40712e-007 122.049 -57.5714 107.253 -176.723 44.9856 -177.085 7.18882 12.0101 3.85084 8.40593e-007 -4.3648e-007 1.36085e-006 
